<svg width="28" height="30" viewBox="0 0 28 30" fill="none" xmlns="http://www.w3.org/2000/svg">
<path d="M22.9999 21.1201C21.9101 21.1249 20.8615 21.5368 20.0599 22.2751L9.35989 16.0501C9.44428 15.7062 9.49122 15.3541 9.49989 15.0001C9.49286 14.6463 9.4476 14.2942 9.36489 13.9501L19.9399 7.7851C20.6971 8.48598 21.6726 8.90468 22.7022 8.97078C23.7319 9.03688 24.7529 8.74635 25.5935 8.14805C26.4341 7.54975 27.043 6.6802 27.3177 5.68568C27.5925 4.69116 27.5164 3.63235 27.1021 2.68738C26.6879 1.7424 25.9608 0.968922 25.0433 0.49706C24.1257 0.0251974 23.0736 -0.116256 22.064 0.0964959C21.0544 0.309248 20.1489 0.863222 19.4998 1.66523C18.8507 2.46723 18.4976 3.46833 18.4999 4.5001C18.5069 4.85395 18.5522 5.20599 18.6349 5.5501L8.05989 11.7151C7.41938 11.1154 6.61755 10.7161 5.75304 10.5662C4.88854 10.4164 3.99907 10.5225 3.1941 10.8716C2.38912 11.2206 1.70375 11.7974 1.22231 12.5309C0.740874 13.2644 0.484375 14.1227 0.484375 15.0001C0.484375 15.8775 0.740874 16.7358 1.22231 17.4693C1.70375 18.2028 2.38912 18.7796 3.1941 19.1287C3.99907 19.4777 4.88854 19.5838 5.75304 19.434C6.61755 19.2841 7.41938 18.8848 8.05989 18.2851L18.7399 24.5251C18.6622 24.8443 18.6219 25.1715 18.6199 25.5001C18.6199 26.3664 18.8768 27.2132 19.3581 27.9335C19.8393 28.6538 20.5234 29.2152 21.3237 29.5467C22.1241 29.8782 23.0047 29.9649 23.8544 29.7959C24.704 29.6269 25.4845 29.2098 26.097 28.5972C26.7096 27.9847 27.1267 27.2042 27.2957 26.3546C27.4647 25.505 27.378 24.6243 27.0465 23.824C26.715 23.0236 26.1536 22.3396 25.4333 21.8583C24.713 21.377 23.8662 21.1201 22.9999 21.1201Z" fill="#333333"/>
</svg>
