<svg width="33" height="30" viewBox="0 0 33 30" fill="none" xmlns="http://www.w3.org/2000/svg">
<path d="M28.9318 5.83333L13.9318 20.8333C13.3468 21.4183 12.4018 21.4183 11.8168 20.8333L7.57177 16.5883C6.98677 16.0033 6.98677 15.0583 7.57177 14.4733C8.15677 13.8883 9.10177 13.8883 9.68677 14.4733L12.8668 17.6533L26.8018 3.71833C27.3868 3.13333 28.3318 3.13333 28.9168 3.71833C29.5168 4.30333 29.5168 5.24833 28.9318 5.83333ZM14.9968 26.9983C7.93177 26.9983 2.27677 20.8633 3.07177 13.6483C3.65677 8.36833 7.75177 4.03333 12.9868 3.16333C15.7018 2.71333 18.2818 3.19333 20.4718 4.33333C21.0568 4.63333 21.7618 4.52833 22.2268 4.06333C22.9468 3.34333 22.7668 2.12833 21.8668 1.66333C19.6618 0.538331 17.1718 -0.0766692 14.5168 -0.00166916C6.80677 0.238331 0.401766 6.50833 0.0117662 14.2033C-0.423234 22.8583 6.44677 29.9983 14.9968 29.9983C16.7968 29.9983 18.5068 29.6833 20.1118 29.0983C21.1318 28.7233 21.4168 27.4033 20.6368 26.6233C20.2318 26.2183 19.6168 26.0683 19.0768 26.2783C17.8018 26.7433 16.4218 26.9983 14.9968 26.9983ZM25.4968 19.4983H22.4968C21.6718 19.4983 20.9968 20.1733 20.9968 20.9983C20.9968 21.8233 21.6718 22.4983 22.4968 22.4983H25.4968V25.4983C25.4968 26.3233 26.1718 26.9983 26.9968 26.9983C27.8218 26.9983 28.4968 26.3233 28.4968 25.4983V22.4983H31.4968C32.3218 22.4983 32.9968 21.8233 32.9968 20.9983C32.9968 20.1733 32.3218 19.4983 31.4968 19.4983H28.4968V16.4983C28.4968 15.6733 27.8218 14.9983 26.9968 14.9983C26.1718 14.9983 25.4968 15.6733 25.4968 16.4983V19.4983Z" fill="white"/>
</svg>
