<svg width="59" height="44" viewBox="0 0 59 44" fill="none" xmlns="http://www.w3.org/2000/svg">
<path fill-rule="evenodd" clip-rule="evenodd" d="M8.36182 8.80469C10.0154 8.80489 11.632 9.31857 13.0068 10.2804C14.3816 11.2423 15.4532 12.6094 16.0859 14.2088C16.7186 15.8081 16.8842 17.568 16.5615 19.2658C16.2389 20.9636 15.4422 22.5231 14.2729 23.7472C13.1037 24.9712 11.614 25.8048 9.99219 26.1425C8.37041 26.4803 6.68935 26.307 5.16162 25.6447C3.63389 24.9823 2.32846 23.8605 1.40967 22.4212C0.490873 20.982 0.000197783 19.2901 0 17.559C0 15.2373 0.88104 13.0104 2.44922 11.3687C4.0174 9.72703 6.14408 8.80469 8.36182 8.80469Z" fill="#333333"/>
<path fill-rule="evenodd" clip-rule="evenodd" d="M50.1655 8.80469C51.8191 8.80469 53.4356 9.31819 54.8105 10.2799C56.1855 11.2417 57.2573 12.6084 57.8901 14.2077C58.523 15.8071 58.6883 17.5669 58.3657 19.2647C58.0432 20.9626 57.2473 22.5225 56.0781 23.7467C54.9089 24.9708 53.4192 25.8047 51.7974 26.1425C50.1756 26.4804 48.4946 26.307 46.9668 25.6447C45.439 24.9823 44.1327 23.8605 43.2139 22.4212C42.295 20.9819 41.8049 19.2901 41.8047 17.559C41.8047 15.2375 42.6855 13.0109 44.2534 11.3692C45.8214 9.72757 47.948 8.80497 50.1655 8.80469Z" fill="#333333"/>
<path fill-rule="evenodd" clip-rule="evenodd" d="M13.4814 35.1736C13.5424 35.0961 13.6026 35.017 13.6636 34.9374C18.5785 37.341 23.9395 38.5795 29.3643 38.5647C34.789 38.5499 40.144 37.282 45.0469 34.8516C45.3995 35.3073 45.763 35.755 46.1377 36.1954L46.1816 36.246L46.2256 36.2982L46.2695 36.3483L46.3135 36.4019L46.3247 36.4132L46.3599 36.4541L46.3965 36.497L46.4526 36.5589L46.4707 36.5788L46.5425 36.6626C47.1905 37.3948 47.868 38.0959 48.5747 38.7666L48.6064 38.7983L48.6309 38.8223L48.6855 38.8734L48.7407 38.9281L48.7617 38.9476L48.7988 38.9833L48.8408 39.0232L48.8579 39.038L48.9136 39.0922L48.9219 39.0984C49.3259 39.471 49.7374 39.8337 50.1567 40.1861C50.1497 40.2196 50.1467 40.2513 50.1387 40.2838C50.1327 40.3152 50.1266 40.3474 50.1196 40.3788C50.1136 40.4113 50.1066 40.4426 50.0986 40.4719C50.0916 40.5033 50.0846 40.5351 50.0776 40.5644C50.0676 40.5958 50.0598 40.627 50.0518 40.6584C50.0438 40.6888 50.0339 40.7211 50.0249 40.7515C50.0159 40.7818 50.0056 40.8111 49.9956 40.8414C49.9856 40.8708 49.9758 40.9021 49.9658 40.9314C49.9548 40.9618 49.9446 40.991 49.9336 41.0204C49.9226 41.0486 49.9129 41.0779 49.8999 41.1073C49.8879 41.1366 49.8758 41.1659 49.8628 41.1942C49.8508 41.2203 49.8387 41.2507 49.8257 41.279L49.7856 41.3649C49.7736 41.3921 49.7576 41.4215 49.7446 41.4497C49.7296 41.4759 49.7157 41.5064 49.7017 41.5336C49.6867 41.5597 49.6717 41.5871 49.6577 41.6154C49.6417 41.6426 49.6278 41.6694 49.6118 41.6966C49.5968 41.7228 49.5805 41.7502 49.5645 41.7754C49.5485 41.8015 49.5316 41.8279 49.5156 41.8541C49.4986 41.8792 49.4828 41.9051 49.4648 41.9323C49.4488 41.9564 49.4306 41.9839 49.4136 42.0079C49.3946 42.0341 49.3779 42.059 49.3599 42.0831L49.3037 42.1577L49.2456 42.2288C49.2266 42.2528 49.2085 42.2778 49.1875 42.3008C49.1685 42.3239 49.1484 42.3468 49.1274 42.3698C49.1084 42.3937 49.0885 42.4164 49.0669 42.4378L49.0049 42.5053L48.9395 42.5712C48.9185 42.5932 48.8975 42.6147 48.8745 42.6346C48.8535 42.6566 48.8316 42.6786 48.8096 42.6985L48.7417 42.7614C48.7187 42.7823 48.6948 42.8013 48.6738 42.8212L48.6025 42.88L48.5327 42.9362L48.4604 42.9909C48.4354 43.0108 48.4127 43.0273 48.3877 43.0451C48.3627 43.0629 48.3365 43.08 48.3115 43.0967C48.2875 43.1156 48.2628 43.13 48.2358 43.1478C48.2128 43.1646 48.1856 43.1812 48.1606 43.1959L48.0815 43.2419C48.0555 43.2586 48.0285 43.2733 48.0015 43.2869C47.9765 43.3026 47.9489 43.3172 47.9219 43.3308L47.8398 43.3738C47.8118 43.3853 47.7848 43.4011 47.7578 43.4137C47.7308 43.4273 47.7028 43.4399 47.6748 43.4525L47.5889 43.4883L47.5049 43.5225C47.4759 43.534 47.4469 43.5458 47.4199 43.5563L47.3315 43.5864L47.2446 43.6145C47.2146 43.625 47.1848 43.6338 47.1548 43.6421C47.1258 43.6516 47.0969 43.6599 47.0669 43.6662C47.0369 43.6735 47.0066 43.6808 46.9766 43.6902L46.8857 43.7112L46.7949 43.729C46.7649 43.7343 46.7336 43.7391 46.7026 43.7464C46.6716 43.7464 46.6418 43.7561 46.6108 43.7592C46.5788 43.7592 46.5486 43.7689 46.5166 43.771L46.4229 43.7822L46.3276 43.7904H46.2275H46.1274C46.0954 43.7904 46.0648 43.7904 46.0278 43.7904H12.4346H12.3428C12.3118 43.7904 12.2805 43.7904 12.2505 43.7904C12.2205 43.7904 12.1896 43.7906 12.1606 43.7832C12.1296 43.7832 12.0988 43.7772 12.0688 43.774C12.039 43.7719 12.0089 43.7678 11.9795 43.7623C11.9515 43.7623 11.9216 43.7553 11.8906 43.749C11.8606 43.749 11.8317 43.7383 11.8027 43.7352L11.7148 43.7173L11.6265 43.6973L11.5405 43.6754L11.4546 43.6524L11.3696 43.6294C11.3406 43.6199 11.3117 43.6127 11.2847 43.6033L11.2007 43.5742L11.1177 43.5445L11.0356 43.5123L10.9546 43.4786C10.9256 43.4671 10.8996 43.4543 10.8726 43.4418C10.8456 43.4302 10.8195 43.4191 10.7935 43.4044C10.7675 43.3929 10.7418 43.3792 10.7148 43.3656L10.6367 43.3268C10.6107 43.3131 10.5866 43.2974 10.5596 43.2838L10.4829 43.2399L10.4077 43.1938L10.3345 43.1478L10.2617 43.1008L10.1895 43.0507L10.1187 43.0001C10.0957 42.9813 10.0728 42.9637 10.0498 42.948C10.0268 42.9291 10.0035 42.9121 9.98047 42.8933C9.95947 42.8734 9.9336 42.8569 9.9126 42.8381C9.8916 42.8192 9.86766 42.7992 9.84766 42.7803C9.82466 42.7604 9.80374 42.7414 9.78174 42.7205C9.76074 42.7006 9.73975 42.68 9.71875 42.6622L9.65576 42.5994C9.63476 42.5795 9.61375 42.5595 9.59375 42.5375C9.57475 42.5166 9.55371 42.4945 9.53271 42.4736C9.51171 42.4516 9.49363 42.4297 9.47363 42.4066C9.43463 42.3627 9.39686 42.3188 9.35986 42.2717L9.30371 42.2037C9.28571 42.1817 9.26849 42.1572 9.25049 42.1332C9.23149 42.1112 9.21378 42.0872 9.19678 42.0631C9.17978 42.0391 9.16151 42.0172 9.14551 41.9911C9.12651 41.967 9.11075 41.941 9.09375 41.9169C9.07675 41.8929 9.0619 41.8664 9.0459 41.8423C9.0309 41.8172 9.01551 41.7913 8.99951 41.7672L8.95459 41.6895L8.91064 41.6123C8.89764 41.5861 8.88365 41.5587 8.86865 41.5325C8.85397 41.5075 8.84058 41.4814 8.82861 41.4548C8.81561 41.4276 8.80157 41.3998 8.78857 41.3726C8.77657 41.3464 8.76446 41.318 8.75146 41.2918L8.71484 41.209C8.70484 41.1807 8.69266 41.1534 8.68066 41.1241C8.66866 41.0959 8.65844 41.0676 8.64844 41.0382C8.63619 41.0104 8.62607 40.9817 8.61768 40.9524C8.60568 40.9231 8.59689 40.8937 8.58789 40.8655C8.57889 40.8362 8.56757 40.8079 8.55957 40.7775C8.55157 40.7493 8.54167 40.721 8.53467 40.6917C8.52867 40.6603 8.5187 40.631 8.5127 40.6017C8.5047 40.5724 8.49675 40.5421 8.48975 40.5117C8.48275 40.4814 8.47575 40.4521 8.46875 40.4218C10.3116 38.8625 11.9924 37.1032 13.4814 35.1736Z" fill="#333333"/>
<path fill-rule="evenodd" clip-rule="evenodd" d="M39.9814 0.0638962C40.0124 0.0691306 40.0432 0.0724388 40.0732 0.0787201H40.0806L40.1274 0.0868988L40.1655 0.096611H40.1782L40.2085 0.103767H40.2285L40.2534 0.110413L40.2754 0.115524L40.3032 0.124725H40.3193L40.3545 0.13546H40.3643L40.4023 0.14875H40.4102L40.4473 0.163574L40.4575 0.168686L40.4883 0.182487L40.5054 0.187599L40.5361 0.202423H40.5464L40.5806 0.220314H40.5854L40.6216 0.238716L40.6611 0.258652L40.7046 0.281654L40.7441 0.304657C40.7691 0.32036 40.7924 0.336517 40.8184 0.351173L40.8281 0.357307L40.8535 0.376221L40.8682 0.386444L40.8916 0.404335L40.9092 0.416092L40.9355 0.435516L40.9473 0.444206L40.9746 0.465164L40.9844 0.473343L41.0112 0.497368L41.0234 0.505035L41.0493 0.530083L41.0586 0.535194L41.0835 0.559219L41.0996 0.571999L41.1206 0.592957L41.1343 0.605225L41.1572 0.628227V0.634872L41.1875 0.665031L41.2163 0.696213L41.2476 0.730972L41.2783 0.768799L41.3086 0.80407L41.3354 0.838829L41.3545 0.863876L41.3652 0.880745L41.3813 0.902725L41.3936 0.920616L41.4145 0.94873L41.4214 0.958954L41.4385 0.987579L41.4492 1.00547L41.4683 1.03358V1.04279L41.4893 1.07959L41.5073 1.11179L41.5176 1.13377L41.5303 1.15729L41.5405 1.17569L41.5532 1.20227L41.5654 1.22425L41.5752 1.24623L41.5835 1.26259C41.5935 1.28876 41.6052 1.31511 41.6162 1.34233L41.6353 1.38731L41.6504 1.43332L41.6645 1.46706V1.48137V1.48801L41.6704 1.50539L41.6792 1.53402L41.6846 1.55191L41.6924 1.58411V1.60303L41.7012 1.63319L41.7065 1.65414L41.7134 1.68584V1.70782L41.7192 1.73695L41.7246 1.75893V1.78603L41.7305 1.81567V1.83561L41.7354 1.86679V1.89593V1.91586V1.95062V1.97056V2.00174V2.02576V2.06052V2.13669V2.18832V6.56393C41.7332 7.14391 41.5123 7.69949 41.1206 8.1097C40.7289 8.51991 40.1985 8.75181 39.6445 8.75429H37.7764C37.6285 10.102 37.5543 11.4574 37.5542 12.814C37.5452 18.8472 39.0319 24.7793 41.8691 30.0307C37.8971 31.8635 33.6059 32.8153 29.2651 32.8258C24.9244 32.8362 20.6285 31.9052 16.6484 30.0915C19.3984 24.9031 20.838 19.066 20.8306 13.1325C20.8302 11.6692 20.7428 10.2072 20.5693 8.75531H18.7393C18.1852 8.75283 17.6548 8.52145 17.2632 8.11124C16.8715 7.70103 16.6505 7.14493 16.6484 6.56495V2.19036C16.6501 1.67062 16.8276 1.16813 17.1494 0.772377C17.4712 0.376624 17.9164 0.113267 18.4062 0.0286255L18.3955 0H39.8623V0.0127792H39.9126L39.9814 0.0638962Z" fill="#FFCC00"/>
</svg>
