<svg width="204" height="52" viewBox="0 0 204 52" fill="none" xmlns="http://www.w3.org/2000/svg">
<path fill-rule="evenodd" clip-rule="evenodd" d="M193.459 11.0234C195.451 11.0232 197.398 11.6133 199.054 12.7186C200.71 13.8239 202.001 15.3952 202.764 17.2334C203.526 19.0717 203.725 21.0943 203.337 23.0459C202.949 24.9975 201.99 26.7902 200.582 28.1973C199.173 29.6044 197.379 30.5627 195.426 30.9511C193.472 31.3395 191.448 31.1406 189.608 30.3793C187.768 29.6181 186.195 28.3287 185.088 26.6743C183.981 25.02 183.391 23.0751 183.391 21.0853C183.391 18.4172 184.451 15.8582 186.339 13.9714C188.228 12.0845 190.789 11.024 193.459 11.0234Z" fill="white"/>
<path fill-rule="evenodd" clip-rule="evenodd" d="M181.195 0.979933C181.233 0.985928 181.269 0.989526 181.306 0.996519H181.314L181.371 1.00676L181.417 1.0175H181.432L181.469 1.02676L181.493 1.03262L181.523 1.04042L181.55 1.04677L181.584 1.0575H181.604L181.646 1.06969L181.659 1.07457L181.704 1.09067H181.714L181.758 1.10774L181.771 1.1136L181.808 1.12872L181.828 1.13457L181.866 1.15165H181.879L181.92 1.17165H181.926L181.969 1.19262L182.017 1.21555L182.069 1.24238L182.116 1.26824C182.146 1.28622 182.175 1.30443 182.205 1.32141L182.217 1.32922L182.249 1.35019L182.266 1.36336L182.294 1.38336L182.315 1.39654L182.346 1.41946L182.361 1.42922L182.395 1.45215L182.406 1.46239L182.439 1.4902L182.453 1.49947L182.485 1.52825L182.496 1.5341L182.526 1.5624L182.545 1.57605L182.57 1.59996L182.587 1.61508L182.614 1.64191L182.62 1.64923L182.657 1.68386L182.692 1.71996V1.72484L182.729 1.76387L182.767 1.8068L182.804 1.84875L182.836 1.88875L182.858 1.91802L182.871 1.93704L182.891 1.9629L182.905 1.9829L182.929 2.01558L182.938 2.02778L182.958 2.06046L182.972 2.08144L182.995 2.11461V2.12583L183.021 2.16779V2.17266L183.042 2.20974L183.053 2.23462L183.068 2.26047L183.08 2.28145L183.096 2.31267L183.11 2.33852L183.122 2.36438L183.132 2.3834C183.145 2.41338 183.159 2.44417 183.172 2.47414L183.194 2.52634L183.212 2.58L183.229 2.61805V2.63512V2.64293L183.237 2.66293L183.249 2.6961L183.254 2.71708L183.264 2.75513L183.271 2.7761L183.281 2.81123L183.287 2.83513L183.295 2.87074L183.3 2.89611L183.307 2.92879L183.314 2.95465V2.98684L183.321 3.02099V3.04294L183.327 3.07855V3.1127V3.13465V3.17466V3.19661V3.23271V3.25954V3.29954V3.38637V3.44637V8.47584C183.325 9.14265 183.06 9.7813 182.588 10.253C182.116 10.7247 181.477 10.9911 180.809 10.9935H178.559C178.381 12.5424 178.292 14.1 178.292 15.6591C178.283 22.5933 180.074 29.4111 183.492 35.4462C178.708 37.5529 173.54 38.647 168.312 38.659C163.084 38.671 157.911 37.6011 153.117 35.5164C156.43 29.5528 158.164 22.8428 158.154 16.0225C158.154 14.3408 158.049 12.6612 157.84 10.9925H155.64C154.972 10.9907 154.333 10.7248 153.861 10.253C153.389 9.78121 153.123 9.14193 153.121 8.47487V3.44735C153.123 2.84984 153.337 2.27211 153.724 1.81704C154.112 1.36197 154.648 1.05922 155.238 0.961884L155.225 0.929688H181.079V0.943834L181.14 0.949688L181.195 0.979933Z" fill="white"/>
<path fill-rule="evenodd" clip-rule="evenodd" d="M149.281 41.3244C149.355 41.2344 149.427 41.1436 149.5 41.0526C155.419 43.8158 161.877 45.2398 168.411 45.2226C174.945 45.2053 181.394 43.7475 187.299 40.9531C187.724 41.478 188.162 41.9927 188.614 42.4976L188.667 42.5566L188.72 42.6161L188.772 42.6751L188.827 42.7361L188.839 42.7503L188.881 42.7971L188.925 42.8464L188.993 42.9161L189.014 42.9391L189.101 43.0391C189.881 43.8803 190.697 44.6864 191.548 45.4577L191.587 45.4938L191.618 45.5206L191.684 45.5806L191.75 45.6436L191.774 45.6655L191.819 45.7065L191.87 45.7523L191.89 45.7694L191.958 45.8323L191.966 45.8392C192.452 46.2674 192.949 46.684 193.455 47.089C193.447 47.1269 193.443 47.1642 193.434 47.2002C193.427 47.2372 193.42 47.274 193.412 47.31C193.405 47.3469 193.396 47.3828 193.387 47.4168C193.379 47.4528 193.369 47.4887 193.361 47.5227C193.349 47.5586 193.34 47.5945 193.331 47.6305C193.321 47.6654 193.309 47.7018 193.298 47.7378C193.287 47.7728 193.276 47.8063 193.264 47.8373C193.251 47.8703 193.24 47.9063 193.228 47.9373C193.214 47.9723 193.202 48.0063 193.188 48.0373C193.174 48.0703 193.162 48.1033 193.147 48.1373C193.132 48.1713 193.119 48.2044 193.104 48.2373C193.089 48.2673 193.075 48.3009 193.06 48.3368C193.043 48.3698 193.028 48.4019 193.012 48.4368C192.997 48.4688 192.978 48.5019 192.962 48.5368C192.944 48.5668 192.928 48.6009 192.911 48.6368C192.893 48.6668 192.874 48.6985 192.857 48.7305C192.838 48.7615 192.822 48.7937 192.802 48.8256C192.784 48.8546 192.765 48.8874 192.745 48.9154C192.726 48.9454 192.705 48.9762 192.686 49.0052C192.666 49.0341 192.646 49.0654 192.625 49.0954C192.605 49.1234 192.583 49.1553 192.563 49.1822C192.54 49.2122 192.521 49.2411 192.499 49.2691C192.477 49.297 192.454 49.325 192.431 49.3549L192.361 49.4369C192.339 49.4639 192.317 49.4928 192.292 49.5198C192.27 49.5458 192.247 49.5739 192.221 49.5988C192.198 49.6268 192.174 49.6532 192.147 49.6779C192.123 49.7038 192.099 49.7285 192.073 49.7554L191.995 49.8315C191.969 49.8555 191.944 49.8817 191.917 49.9047C191.892 49.9287 191.863 49.9544 191.837 49.9764C191.808 50.0004 191.782 50.0256 191.755 50.0486L191.672 50.1154C191.645 50.1384 191.616 50.1613 191.587 50.1833L191.502 50.2472L191.416 50.3101C191.386 50.3331 191.358 50.353 191.328 50.373C191.298 50.394 191.265 50.4121 191.236 50.432C191.207 50.453 191.177 50.4711 191.145 50.4911C191.115 50.5113 191.085 50.5297 191.054 50.5467C191.023 50.5657 190.99 50.5838 190.958 50.6008C190.926 50.62 190.893 50.6376 190.858 50.653C190.827 50.672 190.794 50.6878 190.758 50.7047C190.724 50.7217 190.694 50.7355 190.659 50.7535C190.625 50.7675 190.593 50.7849 190.559 50.7989C190.527 50.8149 190.492 50.8288 190.458 50.8438L190.358 50.8838L190.258 50.9238C190.223 50.9378 190.19 50.9503 190.159 50.9613L190.053 50.9965L189.953 51.0296C189.917 51.0416 189.881 51.0504 189.845 51.0604C189.809 51.0704 189.775 51.0802 189.739 51.0872C189.703 51.0972 189.666 51.1055 189.63 51.1155L189.521 51.1384L189.411 51.1594L189.299 51.1804C189.261 51.1804 189.226 51.1915 189.188 51.1955C189.15 51.1955 189.114 51.2071 189.076 51.2091L188.962 51.2233C188.923 51.2233 188.886 51.2301 188.849 51.2321L188.732 51.2384H188.617C188.579 51.2384 188.541 51.2384 188.5 51.2384H148.042C148.004 51.2384 147.968 51.2384 147.932 51.2384C147.894 51.2384 147.856 51.2384 147.82 51.2384C147.784 51.2384 147.747 51.2381 147.712 51.2291C147.674 51.2291 147.639 51.2224 147.603 51.2184C147.567 51.2156 147.531 51.2108 147.496 51.2043C147.463 51.2043 147.426 51.1952 147.389 51.1882C147.353 51.1882 147.319 51.1765 147.283 51.1735C147.248 51.1655 147.212 51.1596 147.177 51.1526C147.142 51.1446 147.105 51.1356 147.07 51.1306L146.971 51.1052L146.871 51.0794L146.771 51.0535C146.736 51.0425 146.7 51.0333 146.67 51.0223L146.57 50.9887L146.471 50.9555L146.371 50.9184L146.271 50.8794C146.236 50.8654 146.204 50.8524 146.17 50.8374C146.137 50.8244 146.106 50.8105 146.07 50.7945C146.038 50.7805 146.009 50.7656 145.971 50.7496C145.941 50.7356 145.908 50.7217 145.876 50.7047C145.845 50.6898 145.816 50.6719 145.785 50.656L145.691 50.6057L145.602 50.552L145.514 50.4989L145.425 50.4442C145.396 50.4243 145.367 50.4042 145.338 50.3852C145.31 50.3662 145.282 50.3462 145.252 50.3262C145.225 50.3052 145.197 50.2852 145.169 50.2652C145.142 50.2442 145.113 50.2242 145.086 50.2033C145.06 50.1813 145.029 50.1613 145.003 50.1393C144.978 50.1184 144.948 50.0955 144.925 50.0735C144.897 50.0515 144.873 50.0292 144.846 50.0052C144.82 49.9842 144.795 49.9583 144.77 49.9393C144.743 49.9154 144.718 49.8906 144.693 49.8676C144.667 49.8447 144.643 49.8214 144.619 49.7964C144.596 49.7724 144.57 49.7467 144.544 49.7237C144.52 49.6997 144.498 49.6726 144.475 49.6466C144.428 49.5967 144.382 49.5453 144.336 49.492L144.27 49.414C144.248 49.39 144.228 49.3599 144.207 49.333C144.185 49.308 144.163 49.2799 144.142 49.253C144.121 49.226 144.1 49.2 144.081 49.17C144.058 49.1431 144.039 49.1121 144.019 49.0852C143.999 49.0582 143.98 49.0273 143.96 48.9993C143.942 48.9703 143.923 48.9404 143.904 48.9125L143.851 48.8237L143.796 48.7344C143.78 48.7034 143.764 48.6727 143.747 48.6427C143.729 48.614 143.713 48.5845 143.699 48.5539C143.684 48.5229 143.665 48.4908 143.65 48.4588C143.635 48.4288 143.621 48.3971 143.606 48.3661L143.562 48.271C143.55 48.239 143.536 48.2079 143.521 48.171C143.507 48.139 143.494 48.1074 143.481 48.0715C143.467 48.0391 143.454 48.0056 143.444 47.9715C143.43 47.9375 143.42 47.9044 143.408 47.8715C143.397 47.8375 143.385 47.8054 143.375 47.7714C143.365 47.7395 143.354 47.7064 143.345 47.6714C143.337 47.6355 143.324 47.6019 143.318 47.5719C143.308 47.539 143.3 47.5039 143.291 47.4719C143.282 47.44 143.274 47.4049 143.266 47.3719C145.485 45.5799 147.509 43.5581 149.303 41.3405L149.281 41.3244Z" fill="white"/>
<path fill-rule="evenodd" clip-rule="evenodd" d="M143.117 11.0234C145.108 11.0234 147.055 11.6137 148.711 12.7191C150.367 13.8245 151.658 15.3957 152.42 17.2339C153.183 19.0722 153.382 21.0948 152.994 23.0464C152.605 24.9979 151.646 26.7907 150.238 28.1978C148.83 29.6048 147.035 30.5633 145.082 30.9516C143.129 31.3399 141.104 31.1406 139.264 30.3793C137.424 29.618 135.851 28.3286 134.745 26.6743C133.638 25.02 133.047 23.0751 133.047 21.0853C133.047 18.417 134.108 15.8578 135.996 13.9709C137.885 12.084 140.446 11.0237 143.117 11.0234Z" fill="white"/>
<path d="M14.9441 34.2355C14.9864 36.2406 14.2311 38.1806 12.844 39.6304C12.1826 40.351 11.3751 40.9222 10.4751 41.3061C9.57509 41.6899 8.60335 41.8776 7.625 41.8563C5.60791 41.8401 3.6779 41.0324 2.25146 39.6075C0.825026 38.1825 0.0164669 36.2546 0 34.2394V30.7637H5.5271V37.7142H9.72705V23.1448H4.14795C3.63717 23.1426 3.13339 23.0265 2.6731 22.8053C2.2128 22.5841 1.80767 22.263 1.48706 21.8658C0.764882 21.087 0.362876 20.0653 0.361084 19.0037V8.21351C0.336192 7.2534 0.507109 6.29855 0.863525 5.40657C1.21994 4.51459 1.75423 3.70453 2.43408 3.0255C3.11394 2.34646 3.9252 1.81249 4.81812 1.45665C5.71103 1.10081 6.66693 0.930523 7.62793 0.955656C8.59278 0.92998 9.55287 1.09986 10.45 1.45568C11.347 1.81149 12.1624 2.34563 12.8469 3.0255C13.5356 3.69923 14.0776 4.50796 14.439 5.40071C14.8003 6.29347 14.9734 7.25088 14.947 8.21351V12.0483H9.7229V4.78801H5.52295V18.9988H11.1001C11.6095 18.9928 12.1142 19.0944 12.5815 19.2969C13.0489 19.4993 13.4683 19.7979 13.812 20.1735C14.1866 20.5688 14.4791 21.0343 14.6724 21.5433C14.8656 22.0523 14.9559 22.5949 14.938 23.139L14.9441 34.2355ZM76.7571 12.7644H80.5959V36.9966H76.7571V12.7644ZM71.1809 47.1195H51.9409V51.2596H72.562C73.1192 51.2798 73.6746 51.1857 74.1941 50.9835C74.7136 50.7813 75.1863 50.4749 75.583 50.0835C75.9705 49.6953 76.2746 49.2321 76.4768 48.7225C76.679 48.2128 76.7751 47.6675 76.759 47.1195V41.188H81.979C82.5366 41.2123 83.0933 41.1202 83.6135 40.9182C84.1338 40.7163 84.6063 40.4088 85.0012 40.0148C85.3961 39.6207 85.7047 39.1489 85.9075 38.6294C86.1102 38.1098 86.2026 37.5537 86.179 36.9966V12.7644C86.1842 12.2532 86.0798 11.747 85.8728 11.2795C85.6658 10.812 85.3611 10.3941 84.979 10.0541C84.1676 9.30169 83.0926 8.89832 81.9861 8.9311H71.24L71.189 47.1195H71.1809ZM34.2351 34.2311C34.246 35.2342 34.0494 36.229 33.6577 37.1527C33.2661 38.0764 32.6877 38.9091 31.959 39.5992C31.2586 40.3204 30.4188 40.8918 29.4905 41.2787C28.5622 41.6657 27.5649 41.8605 26.5591 41.8505C25.6023 41.8449 24.657 41.6391 23.7844 41.247C22.9118 40.8549 22.131 40.2848 21.4919 39.5733C20.7871 38.8745 20.2294 38.0419 19.8516 37.1244C19.4737 36.207 19.2835 35.2231 19.292 34.2311V15.8787C19.274 14.9107 19.458 13.9496 19.8325 13.0566C20.207 12.1637 20.7637 11.3587 21.467 10.6926C22.4812 9.65939 23.7821 8.9535 25.2019 8.6667C26.6217 8.3799 28.0949 8.52535 29.4312 9.08379C30.7675 9.64223 31.9055 10.5882 32.698 11.7995C33.4905 13.0108 33.9012 14.4318 33.877 15.8787V27.2796H24.823V37.7079H28.6599V32.495H34.239V34.2336L34.2351 34.2311ZM28.657 23.1419V12.4049H24.823V23.1419H28.657ZM47.5901 13.0693H44.1111V41.8534C42.7287 41.6937 41.4578 41.0173 40.554 39.9601C39.9981 39.5187 39.5372 38.9696 39.1987 38.3459C38.8602 37.7223 38.6511 37.0365 38.584 36.3302V1.31518H44.1111V8.93403H47.5901V13.0693ZM66.8799 41.1368H56.0801C55.0177 41.1348 53.995 40.7336 53.2151 40.0128C52.8175 39.6923 52.4963 39.2874 52.2749 38.8274C52.0535 38.3674 51.9374 37.8636 51.9351 37.3532V23.1419C51.921 22.5846 52.028 22.0309 52.249 21.5189C52.47 21.007 52.7997 20.5487 53.2151 20.1764C53.9811 19.4276 55.0084 19.0059 56.0801 18.9998H61.2991V13.0703H53.6741V8.92915H62.679C63.2359 8.90921 63.791 9.00322 64.3103 9.20526C64.8296 9.40729 65.3022 9.71286 65.699 10.1038C66.0869 10.4919 66.3912 10.9554 66.5933 11.4653C66.7953 11.9753 66.8909 12.5211 66.874 13.0693L66.8799 41.1368ZM61.304 37.3532V23.1419H57.467V37.3532H61.304ZM105.464 41.1368H94.6641C93.6013 41.135 92.5782 40.7338 91.7981 40.0128C91.4011 39.6918 91.0804 39.2869 90.8594 38.8269C90.6384 38.367 90.5225 37.8634 90.52 37.3532V23.1419C90.5062 22.5848 90.6131 22.0313 90.8337 21.5194C91.0544 21.0075 91.3835 20.5492 91.7981 20.1764C92.5644 19.4275 93.5921 19.0057 94.6641 18.9998H99.8821V13.0703H92.2581V8.92915H101.264C101.821 8.90927 102.376 9.00323 102.895 9.20526C103.415 9.40728 103.887 9.71291 104.284 10.1038C104.672 10.4918 104.977 10.9549 105.179 11.4649C105.381 11.9748 105.477 12.521 105.46 13.0693V41.1358L105.464 41.1368ZM99.886 37.3532V23.1419H96.05V37.3532H99.886ZM118.821 13.0693H115.341V41.8534C113.958 41.6942 112.687 41.0177 111.784 39.9601C111.228 39.5189 110.767 38.9699 110.428 38.3464C110.09 37.7229 109.881 37.0374 109.814 36.3312V1.31518H115.342V8.93403H118.821V13.0693Z" fill="white"/>
</svg>
