<svg width="169" height="44" viewBox="0 0 169 44" fill="none" xmlns="http://www.w3.org/2000/svg">
<path fill-rule="evenodd" clip-rule="evenodd" d="M150.45 0.0638962C150.481 0.0691306 150.512 0.0724388 150.542 0.0787201H150.549L150.596 0.0868988L150.634 0.096611H150.647L150.677 0.103767H150.697L150.722 0.110413L150.744 0.115524L150.772 0.124725H150.788L150.823 0.13546H150.833L150.871 0.14875H150.879L150.916 0.163574L150.926 0.168686L150.957 0.182487L150.974 0.187599L151.005 0.202423H151.015L151.049 0.220314H151.054L151.09 0.238716L151.13 0.258652L151.173 0.281654L151.213 0.304657C151.238 0.32036 151.261 0.336517 151.287 0.351173L151.297 0.357307L151.322 0.376221L151.337 0.386444L151.36 0.404335L151.378 0.416092L151.404 0.435516L151.416 0.444206L151.443 0.465164L151.453 0.473343L151.48 0.497368L151.492 0.505035L151.518 0.530083L151.527 0.535194L151.552 0.559219L151.568 0.571999L151.589 0.592957L151.603 0.605225L151.626 0.628227V0.634872L151.656 0.665031L151.685 0.696213L151.716 0.730972L151.747 0.768799L151.777 0.80407L151.804 0.838829L151.823 0.863876L151.834 0.880745L151.85 0.902725L151.862 0.920616L151.883 0.94873L151.89 0.958954L151.907 0.987579L151.918 1.00547L151.937 1.03358V1.04279L151.958 1.07959L151.976 1.11179L151.986 1.13377L151.999 1.15729L152.009 1.17569L152.022 1.20227L152.034 1.22425L152.044 1.24623L152.052 1.26259C152.062 1.28876 152.074 1.31511 152.085 1.34233L152.104 1.38731L152.119 1.43332L152.133 1.46706V1.48137V1.48801L152.139 1.50539L152.148 1.53402L152.153 1.55191L152.161 1.58411V1.60303L152.17 1.63319L152.175 1.65414L152.182 1.68584V1.70782L152.188 1.73695L152.193 1.75893V1.78603L152.199 1.81567V1.83561L152.204 1.86679V1.89593V1.91586V1.95062V1.97056V2.00174V2.02576V2.06052V2.13669V2.18832V6.56393C152.202 7.14391 151.981 7.69949 151.589 8.1097C151.198 8.51991 150.667 8.75181 150.113 8.75429H148.245C148.097 10.102 148.023 11.4574 148.023 12.814C148.014 18.8472 149.501 24.7793 152.338 30.0307C148.366 31.8635 144.075 32.8153 139.734 32.8258C135.393 32.8362 131.097 31.9052 127.117 30.0915C129.867 24.9031 131.307 19.066 131.299 13.1325C131.299 11.6692 131.212 10.2072 131.038 8.75531H129.208C128.654 8.75283 128.124 8.52145 127.732 8.11124C127.34 7.70103 127.119 7.14493 127.117 6.56495V2.19036C127.119 1.67062 127.296 1.16813 127.618 0.772377C127.94 0.376624 128.385 0.113267 128.875 0.0286255L128.864 0H150.331V0.0127792H150.381L150.45 0.0638962Z" fill="#FFCC00"/>
<path fill-rule="evenodd" clip-rule="evenodd" d="M123.95 35.1736C124.011 35.0961 124.071 35.017 124.132 34.9374C129.047 37.341 134.408 38.5795 139.833 38.5647C145.258 38.5499 150.613 37.282 155.516 34.8516C155.868 35.3073 156.232 35.755 156.606 36.1954L156.65 36.246L156.694 36.2982L156.738 36.3483L156.782 36.4019L156.793 36.4132L156.829 36.4541L156.865 36.497L156.921 36.5589L156.939 36.5788L157.011 36.6626C157.659 37.3948 158.337 38.0959 159.043 38.7666L159.075 38.7983L159.1 38.8223L159.154 38.8734L159.209 38.9281L159.23 38.9476L159.268 38.9833L159.31 39.0232L159.327 39.038L159.382 39.0922L159.391 39.0984C159.795 39.471 160.206 39.8337 160.625 40.1861C160.618 40.2196 160.615 40.2513 160.607 40.2838C160.601 40.3152 160.595 40.3474 160.588 40.3788C160.582 40.4113 160.575 40.4426 160.567 40.4719C160.56 40.5033 160.553 40.5351 160.546 40.5644C160.536 40.5958 160.529 40.627 160.521 40.6584C160.513 40.6888 160.503 40.7211 160.494 40.7515C160.485 40.7818 160.474 40.8111 160.464 40.8414C160.454 40.8708 160.445 40.9021 160.435 40.9314C160.424 40.9618 160.413 40.991 160.402 41.0204C160.391 41.0486 160.382 41.0779 160.369 41.1073C160.357 41.1366 160.345 41.1659 160.332 41.1942C160.32 41.2203 160.307 41.2507 160.294 41.279L160.254 41.3649C160.242 41.3921 160.226 41.4215 160.213 41.4497C160.198 41.4759 160.184 41.5064 160.17 41.5336C160.155 41.5597 160.14 41.5871 160.126 41.6154C160.11 41.6426 160.097 41.6694 160.081 41.6966C160.066 41.7228 160.049 41.7502 160.033 41.7754C160.017 41.8015 160 41.8279 159.984 41.8541C159.967 41.8792 159.952 41.9051 159.934 41.9323C159.918 41.9564 159.899 41.9839 159.882 42.0079C159.863 42.0341 159.847 42.059 159.829 42.0831L159.772 42.1577L159.714 42.2288C159.695 42.2528 159.677 42.2778 159.656 42.3008C159.637 42.3239 159.617 42.3468 159.596 42.3698C159.577 42.3937 159.557 42.4164 159.536 42.4378L159.474 42.5053L159.408 42.5712C159.387 42.5932 159.366 42.6147 159.343 42.6346C159.322 42.6566 159.3 42.6786 159.278 42.6985L159.21 42.7614C159.187 42.7823 159.164 42.8013 159.143 42.8212L159.071 42.88L159.001 42.9362L158.929 42.9909C158.904 43.0108 158.881 43.0273 158.856 43.0451C158.831 43.0629 158.805 43.08 158.78 43.0967C158.756 43.1156 158.732 43.13 158.705 43.1478C158.682 43.1646 158.654 43.1812 158.629 43.1959L158.55 43.2419C158.524 43.2586 158.497 43.2733 158.47 43.2869C158.445 43.3026 158.418 43.3172 158.391 43.3308L158.309 43.3738C158.281 43.3853 158.254 43.4011 158.227 43.4137C158.2 43.4273 158.172 43.4399 158.144 43.4525L158.058 43.4883L157.974 43.5225C157.945 43.534 157.916 43.5458 157.889 43.5563L157.8 43.5864L157.713 43.6145C157.683 43.625 157.654 43.6338 157.624 43.6421C157.595 43.6516 157.566 43.6599 157.536 43.6662C157.506 43.6735 157.475 43.6808 157.445 43.6902L157.354 43.7112L157.264 43.729C157.234 43.7343 157.202 43.7391 157.171 43.7464C157.14 43.7464 157.111 43.7561 157.08 43.7592C157.048 43.7592 157.017 43.7689 156.985 43.771L156.892 43.7822L156.796 43.7904H156.696H156.596C156.564 43.7904 156.534 43.7904 156.497 43.7904H122.903H122.812C122.781 43.7904 122.749 43.7904 122.719 43.7904C122.689 43.7904 122.658 43.7906 122.629 43.7832C122.598 43.7832 122.568 43.7772 122.538 43.774C122.508 43.7719 122.478 43.7678 122.448 43.7623C122.42 43.7623 122.39 43.7553 122.359 43.749C122.329 43.749 122.3 43.7383 122.271 43.7352L122.184 43.7173L122.095 43.6973L122.009 43.6754L121.923 43.6524L121.838 43.6294C121.809 43.6199 121.78 43.6127 121.753 43.6033L121.669 43.5742L121.586 43.5445L121.504 43.5123L121.423 43.4786C121.394 43.4671 121.368 43.4543 121.341 43.4418C121.314 43.4302 121.288 43.4191 121.262 43.4044C121.236 43.3929 121.211 43.3792 121.184 43.3656L121.105 43.3268C121.079 43.3131 121.055 43.2974 121.028 43.2838L120.952 43.2399L120.876 43.1938L120.803 43.1478L120.73 43.1008L120.658 43.0507L120.587 43.0001C120.564 42.9813 120.542 42.9637 120.519 42.948C120.496 42.9291 120.472 42.9121 120.449 42.8933C120.428 42.8734 120.402 42.8569 120.381 42.8381C120.36 42.8192 120.336 42.7992 120.316 42.7803C120.293 42.7604 120.272 42.7414 120.25 42.7205C120.229 42.7006 120.209 42.68 120.188 42.6622L120.125 42.5994C120.104 42.5795 120.082 42.5595 120.062 42.5375C120.043 42.5166 120.022 42.4945 120.001 42.4736C119.98 42.4516 119.962 42.4297 119.942 42.4066C119.903 42.3627 119.866 42.3188 119.829 42.2717L119.772 42.2037C119.754 42.1817 119.737 42.1572 119.719 42.1332C119.7 42.1112 119.683 42.0872 119.666 42.0631C119.649 42.0391 119.63 42.0172 119.614 41.9911C119.595 41.967 119.58 41.941 119.562 41.9169C119.545 41.8929 119.531 41.8664 119.515 41.8423C119.5 41.8172 119.484 41.7913 119.468 41.7672L119.423 41.6895L119.379 41.6123C119.366 41.5861 119.352 41.5587 119.337 41.5325C119.323 41.5075 119.309 41.4814 119.297 41.4548C119.284 41.4276 119.27 41.3998 119.257 41.3726C119.245 41.3464 119.233 41.318 119.22 41.2918L119.184 41.209C119.174 41.1807 119.161 41.1534 119.149 41.1241C119.137 41.0959 119.127 41.0676 119.117 41.0382C119.105 41.0104 119.095 40.9817 119.086 40.9524C119.074 40.9231 119.066 40.8937 119.057 40.8655C119.048 40.8362 119.036 40.8079 119.028 40.7775C119.02 40.7493 119.01 40.721 119.003 40.6917C118.997 40.6603 118.987 40.631 118.981 40.6017C118.973 40.5724 118.965 40.5421 118.958 40.5117C118.951 40.4814 118.945 40.4521 118.938 40.4218C120.78 38.8625 122.461 37.1032 123.95 35.1736Z" fill="#333333"/>
<path fill-rule="evenodd" clip-rule="evenodd" d="M160.634 8.80469C162.288 8.80469 163.904 9.31819 165.279 10.2799C166.654 11.2417 167.726 12.6084 168.359 14.2077C168.992 15.8071 169.157 17.5669 168.834 19.2647C168.512 20.9626 167.716 22.5225 166.547 23.7467C165.378 24.9708 163.888 25.8047 162.266 26.1425C160.644 26.4804 158.963 26.307 157.436 25.6447C155.908 24.9823 154.601 23.8605 153.683 22.4212C152.764 20.9819 152.274 19.2901 152.273 17.559C152.273 15.2375 153.154 13.0109 154.722 11.3692C156.29 9.72757 158.417 8.80497 160.634 8.80469Z" fill="#333333"/>
<path fill-rule="evenodd" clip-rule="evenodd" d="M118.831 8.80469C120.484 8.80489 122.101 9.31857 123.476 10.2804C124.85 11.2423 125.922 12.6094 126.555 14.2088C127.187 15.8081 127.353 17.568 127.03 19.2658C126.708 20.9636 125.911 22.5231 124.742 23.7472C123.572 24.9712 122.083 25.8048 120.461 26.1425C118.839 26.4803 117.158 26.307 115.63 25.6447C114.103 24.9823 112.797 23.8605 111.878 22.4212C110.96 20.982 110.469 19.2901 110.469 17.559C110.469 15.2373 111.35 13.0104 112.918 11.3687C114.486 9.72703 116.613 8.80469 118.831 8.80469Z" fill="#333333"/>
<path d="M12.405 29.0053C12.4401 30.7488 11.8141 32.4363 10.6641 33.6978C10.115 34.3247 9.44448 34.8217 8.69727 35.1557C7.95006 35.4897 7.14333 35.6525 6.33105 35.6341C4.65625 35.6196 3.05393 34.9167 1.86963 33.6769C0.685325 32.437 0.0138474 30.7596 0 29.0063V25.9822H4.58911V32.0299H8.073V19.3534H3.44116C3.01713 19.3513 2.5989 19.2504 2.2168 19.0579C1.8347 18.8654 1.49833 18.5862 1.23218 18.2406C0.632491 17.563 0.298597 16.6739 0.297119 15.7502V6.36457C0.276352 5.52916 0.418212 4.69837 0.714111 3.9222C1.01001 3.14604 1.4538 2.4408 2.01831 1.84992C2.58283 1.25904 3.25634 0.794741 3.9978 0.4851C4.73926 0.175459 5.53305 0.0271939 6.33105 0.0490725C7.13208 0.0267578 7.92905 0.174576 8.67383 0.484078C9.41861 0.79358 10.0957 1.25804 10.6641 1.84941C11.2356 2.43597 11.6853 3.14014 11.9849 3.91709C12.2844 4.69405 12.4274 5.52703 12.405 6.36457V9.70097H8.07202V3.38445H4.58813V15.7512H9.21899C9.64196 15.7457 10.0613 15.8337 10.4495 16.0098C10.8376 16.1859 11.1858 16.4461 11.4712 16.773C11.7822 17.1169 12.0248 17.5218 12.1853 17.9645C12.3458 18.4073 12.4208 18.879 12.406 19.3524L12.405 29.0053ZM63.73 10.3241H66.9182V31.4083H63.7312L63.73 10.3241ZM59.1001 40.2152H43.124V43.818H60.2461C60.7087 43.835 61.1698 43.7527 61.6011 43.5767C62.0323 43.4006 62.4247 43.1345 62.7542 42.7941C63.0758 42.4564 63.3283 42.0536 63.4961 41.6102C63.6639 41.1669 63.7434 40.6919 63.73 40.2152V35.0545H68.0642C68.527 35.0752 68.9888 34.9947 69.4204 34.8188C69.8521 34.6429 70.2442 34.3754 70.5718 34.0326C70.8994 33.6899 71.1552 33.2796 71.3235 32.8278C71.4917 32.376 71.5686 31.8928 71.5491 31.4083V10.3241C71.5529 9.87915 71.4657 9.43852 71.2932 9.03185C71.1207 8.62518 70.867 8.26195 70.5491 7.96658C69.8754 7.31205 68.9829 6.9611 68.0642 6.98973H59.1421L59.1001 40.2152ZM28.4192 29.0053C28.4282 29.878 28.2649 30.7432 27.9397 31.5468C27.6145 32.3504 27.1342 33.0755 26.5291 33.6758C25.9476 34.3033 25.2504 34.8006 24.4797 35.1373C23.7091 35.474 22.8812 35.6427 22.0461 35.6341C21.2518 35.6291 20.4672 35.4503 19.7427 35.1092C19.0182 34.7681 18.3698 34.2727 17.8391 33.6539C17.254 33.0457 16.7911 32.3211 16.4775 31.5228C16.1639 30.7245 16.0061 29.8684 16.0132 29.0053V13.0374C15.9981 12.195 16.151 11.3588 16.4619 10.5817C16.7729 9.80467 17.235 9.10386 17.8191 8.52426C18.6616 7.62716 19.7416 7.01525 20.9197 6.76686C22.0978 6.51847 23.3199 6.64509 24.4285 7.13081C25.537 7.61654 26.4811 8.43908 27.1389 9.49191C27.7968 10.5447 28.1382 11.7795 28.1191 13.0374V22.9576H20.5981V32.0309H23.7842V27.4948H28.416V29.0073L28.4192 29.0053ZM23.7871 19.3544V10.0133H20.6001V19.3544H23.7871ZM39.5071 10.5909H36.6191V35.6341C35.4715 35.4952 34.4164 34.9072 33.666 33.9877C33.2043 33.6036 32.8214 33.1257 32.5403 32.583C32.2592 32.0402 32.0856 31.4438 32.03 30.8291V0.364975H36.6191V6.99382H39.5081L39.5071 10.5909ZM55.5242 35.0126H46.5601C45.6778 35.0105 44.8287 34.661 44.1812 34.0337C43.8512 33.7547 43.5846 33.4023 43.4009 33.0021C43.2172 32.6019 43.121 32.1641 43.1191 31.7201V19.3554C43.1072 18.8704 43.1961 18.3881 43.3796 17.9426C43.5632 17.497 43.837 17.0989 44.1821 16.775C44.8182 16.1236 45.6712 15.7565 46.561 15.7512H50.895V10.5919H44.5642V6.98973H52.041C52.5035 6.97254 52.9647 7.05411 53.396 7.22998C53.8273 7.40585 54.2195 7.67237 54.5491 8.01258C54.8713 8.35031 55.1241 8.75318 55.292 9.19696C55.4598 9.64074 55.5392 10.1159 55.5251 10.593L55.5242 35.0126ZM50.894 31.7201V19.3554H47.708V31.7201H50.894ZM87.561 35.0126H78.5962C77.7136 35.0108 76.8638 34.6613 76.2161 34.0337C75.8863 33.7545 75.6199 33.4023 75.4363 33.0021C75.2526 32.602 75.1562 32.164 75.1541 31.7201V19.3554C75.1426 18.8705 75.2315 18.3885 75.4148 17.9431C75.5981 17.4976 75.8715 17.0994 76.2161 16.775C76.8524 16.1234 77.706 15.7562 78.5962 15.7512H82.9292V10.5919H76.5991V6.98973H84.0771C84.5395 6.97268 85.0003 7.05462 85.4314 7.23049C85.8625 7.40636 86.2546 7.6725 86.584 8.01258C86.9062 8.35027 87.1591 8.75317 87.3269 9.19696C87.4948 9.64075 87.5741 10.1159 87.5601 10.593L87.561 35.0126ZM82.9302 31.7201V19.3554H79.7451V31.7201H82.9302ZM98.6521 10.5909H95.7622V35.6341C94.6145 35.4956 93.5592 34.9075 92.8091 33.9877C92.3474 33.6038 91.9645 33.126 91.6833 32.5835C91.4022 32.0409 91.2287 31.4446 91.1731 30.8302V0.360886H95.7632V6.98973H98.6521V10.5909Z" fill="#333333"/>
</svg>
