<svg width="171" height="171" viewBox="0 0 171 171" fill="none" xmlns="http://www.w3.org/2000/svg">
<path d="M85.5 1C132.168 1 170 38.8319 170 85.5C170 132.168 132.168 170 85.5 170C38.8319 170 1 132.168 1 85.5C1 38.8319 38.8319 1 85.5 1Z" fill="#D2D2D2" stroke="black"/>
<path d="M86 11C127.421 11 161 44.5786 161 86C161 127.421 127.421 161 86 161C44.5786 161 11 127.421 11 86C11 44.5786 44.5786 11 86 11Z" fill="#D2D2D2" stroke="black"/>
<path fill-rule="evenodd" clip-rule="evenodd" d="M86 153.5C123.279 153.5 153.5 123.279 153.5 86C153.5 48.7212 123.279 18.5 86 18.5C48.7212 18.5 18.5 48.7212 18.5 86C18.5 123.279 48.7212 153.5 86 153.5ZM86 161C127.422 161 161 127.422 161 86C161 44.5775 127.422 11 86 11C44.5775 11 11 44.5775 11 86C11 127.422 44.5775 161 86 161Z" fill="#A8A8A8"/>
<path d="M41 129.612C41 125.738 43.895 122.464 47.75 122.037C76.6812 118.834 95.45 119.123 124.317 122.108C125.759 122.259 127.125 122.827 128.249 123.742C129.373 124.657 130.207 125.88 130.647 127.261C131.088 128.642 131.117 130.121 130.731 131.518C130.345 132.915 129.56 134.169 128.472 135.128C94.4037 164.824 74.9337 164.415 43.4 135.158C41.8625 133.733 41 131.708 41 129.615V129.612Z" fill="#A8A8A8"/>
<path fill-rule="evenodd" clip-rule="evenodd" d="M123.931 125.837C95.2925 122.875 76.7938 122.597 48.1588 125.766C47.2162 125.876 46.3472 126.329 45.7183 127.04C45.0893 127.751 44.7446 128.668 44.75 129.617C44.75 130.69 45.1963 131.706 45.95 132.411C61.58 146.908 73.4225 153.46 84.9987 153.501C96.6162 153.542 109.096 147.043 126.009 132.306C126.546 131.828 126.933 131.204 127.122 130.51C127.311 129.816 127.295 129.082 127.075 128.397C126.855 127.712 126.441 127.106 125.883 126.652C125.324 126.199 124.647 125.917 123.931 125.841V125.837ZM47.3375 118.311C76.5725 115.075 95.615 115.367 124.707 118.378C126.876 118.605 128.932 119.459 130.623 120.835C132.313 122.212 133.566 124.052 134.228 126.129C134.889 128.207 134.93 130.432 134.346 132.533C133.762 134.634 132.579 136.519 130.94 137.957C113.784 152.912 99.4962 161.057 84.9762 161.001C70.415 160.948 56.7575 152.665 40.8538 137.908C39.7151 136.848 38.8074 135.564 38.1873 134.137C37.5672 132.709 37.2482 131.17 37.25 129.614C37.2446 126.818 38.2708 124.118 40.1321 122.032C41.9935 119.946 44.5591 118.619 47.3375 118.307V118.311Z" fill="#A8A8A8"/>
<path d="M116 71C116 78.9565 112.839 86.5871 107.213 92.2132C101.587 97.8393 93.9565 101 86 101C78.0435 101 70.4129 97.8393 64.7868 92.2132C59.1607 86.5871 56 78.9565 56 71C56 63.0435 59.1607 55.4129 64.7868 49.7868C70.4129 44.1607 78.0435 41 86 41C93.9565 41 101.587 44.1607 107.213 49.7868C112.839 55.4129 116 63.0435 116 71Z" fill="#A8A8A8"/>
<path fill-rule="evenodd" clip-rule="evenodd" d="M86 93.5C91.9674 93.5 97.6903 91.1295 101.91 86.9099C106.129 82.6903 108.5 76.9674 108.5 71C108.5 65.0326 106.129 59.3097 101.91 55.0901C97.6903 50.8705 91.9674 48.5 86 48.5C80.0326 48.5 74.3097 50.8705 70.0901 55.0901C65.8705 59.3097 63.5 65.0326 63.5 71C63.5 76.9674 65.8705 82.6903 70.0901 86.9099C74.3097 91.1295 80.0326 93.5 86 93.5ZM86 101C93.9565 101 101.587 97.8393 107.213 92.2132C112.839 86.5871 116 78.9565 116 71C116 63.0435 112.839 55.4129 107.213 49.7868C101.587 44.1607 93.9565 41 86 41C78.0435 41 70.4129 44.1607 64.7868 49.7868C59.1607 55.4129 56 63.0435 56 71C56 78.9565 59.1607 86.5871 64.7868 92.2132C70.4129 97.8393 78.0435 101 86 101Z" fill="#A8A8A8"/>
</svg>
