<svg width="18" height="16" viewBox="0 0 18 16" fill="none" xmlns="http://www.w3.org/2000/svg">
<path d="M17.0992 3.87116e-06H0V1.79992H2.0699L5.23866 10.5142C5.36526 10.8611 5.59532 11.1608 5.89774 11.3728C6.20016 11.5848 6.56037 11.6988 6.92968 11.6995H14.3993V9.89954H6.92968L6.27451 8.09963H14.3993C14.7593 8.09963 15.0851 7.88544 15.2264 7.55425L17.9263 1.25455C17.9854 1.11769 18.0096 0.968268 17.9966 0.819747C17.9836 0.671225 17.9338 0.52828 17.8517 0.403804C17.7696 0.279329 17.6579 0.17724 17.5265 0.106744C17.3951 0.0362492 17.2483 -0.000433812 17.0992 3.87116e-06Z" fill="black"/>
<path d="M17.0992 3.87116e-06H0V1.79992H2.0699L5.23866 10.5142C5.36526 10.8611 5.59532 11.1608 5.89774 11.3728C6.20016 11.5848 6.56037 11.6988 6.92968 11.6995H14.3993V9.89954H6.92968L6.27451 8.09963H14.3993C14.7593 8.09963 15.0851 7.88544 15.2264 7.55425L17.9263 1.25455C17.9854 1.11769 18.0096 0.968268 17.9966 0.819747C17.9836 0.671225 17.9338 0.52828 17.8517 0.403804C17.7696 0.279329 17.6579 0.17724 17.5265 0.106744C17.3951 0.0362492 17.2483 -0.000433812 17.0992 3.87116e-06Z" fill="black" fill-opacity="0.2"/>
<path d="M9.00066 13.9515C9.00066 14.697 8.39627 15.3014 7.65072 15.3014C6.90517 15.3014 6.30078 14.697 6.30078 13.9515C6.30078 13.2059 6.90517 12.6016 7.65072 12.6016C8.39627 12.6016 9.00066 13.2059 9.00066 13.9515Z" fill="black"/>
<path d="M9.00066 13.9515C9.00066 14.697 8.39627 15.3014 7.65072 15.3014C6.90517 15.3014 6.30078 14.697 6.30078 13.9515C6.30078 13.2059 6.90517 12.6016 7.65072 12.6016C8.39627 12.6016 9.00066 13.2059 9.00066 13.9515Z" fill="black" fill-opacity="0.2"/>
<path d="M14.3991 13.9515C14.3991 14.697 13.7947 15.3014 13.0492 15.3014C12.3036 15.3014 11.6992 14.697 11.6992 13.9515C11.6992 13.2059 12.3036 12.6016 13.0492 12.6016C13.7947 12.6016 14.3991 13.2059 14.3991 13.9515Z" fill="black"/>
<path d="M14.3991 13.9515C14.3991 14.697 13.7947 15.3014 13.0492 15.3014C12.3036 15.3014 11.6992 14.697 11.6992 13.9515C11.6992 13.2059 12.3036 12.6016 13.0492 12.6016C13.7947 12.6016 14.3991 13.2059 14.3991 13.9515Z" fill="black" fill-opacity="0.2"/>
</svg>
