<svg width="19" height="20" viewBox="0 0 19 20" fill="none" xmlns="http://www.w3.org/2000/svg">
<path d="M15.9986 14.0796C15.2721 14.0828 14.573 14.3574 14.0386 14.8496L6.90862 10.6996C6.96376 10.4702 6.99393 10.2355 6.99862 9.99959C6.99393 9.7637 6.96376 9.529 6.90862 9.29959L13.9586 5.18959C14.4634 5.65675 15.1136 5.93583 15.8 5.97986C16.4863 6.0239 17.1669 5.83021 17.7272 5.43139C18.2875 5.03256 18.6934 4.45293 18.8766 3.79C19.0597 3.12706 19.0089 2.42129 18.7328 1.79138C18.4567 1.16148 17.9721 0.645895 17.3604 0.331353C16.7488 0.0168113 16.0475 -0.0774914 15.3745 0.0643084C14.7015 0.206108 14.0979 0.575358 13.6652 1.10994C13.2325 1.64453 12.9971 2.31183 12.9986 2.99959C13.0033 3.23548 13.0335 3.47018 13.0886 3.69959L6.03862 7.80959C5.61162 7.40982 5.07706 7.1436 4.50073 7.04368C3.92439 6.94376 3.33141 7.01451 2.79476 7.24722C2.25811 7.47994 1.8012 7.86445 1.48024 8.35347C1.15928 8.84248 0.988281 9.41466 0.988281 9.99959C0.988281 10.5845 1.15928 11.1567 1.48024 11.6457C1.8012 12.1347 2.25811 12.5192 2.79476 12.752C3.33141 12.9847 3.92439 13.0554 4.50073 12.9555C5.07706 12.8556 5.61162 12.5894 6.03862 12.1896L13.1586 16.3496C13.1068 16.5624 13.08 16.7806 13.0786 16.9996C13.0786 17.5771 13.2499 18.1417 13.5707 18.6219C13.8916 19.102 14.3476 19.4763 14.8812 19.6973C15.4147 19.9183 16.0019 19.9762 16.5683 19.8635C17.1347 19.7508 17.655 19.4727 18.0634 19.0643C18.4717 18.656 18.7498 18.1357 18.8625 17.5693C18.9752 17.0028 18.9174 16.4157 18.6964 15.8822C18.4753 15.3486 18.1011 14.8926 17.6209 14.5717C17.1407 14.2508 16.5761 14.0796 15.9986 14.0796Z" fill="black"/>
</svg>
