<svg width="36" height="36" viewBox="0 0 36 36" fill="none" xmlns="http://www.w3.org/2000/svg">
<path fill-rule="evenodd" clip-rule="evenodd" d="M18.5 4.13282C25.728 4.12682 31.754 10.1648 31.754 17.3788C31.754 24.5988 25.728 30.6188 18.5 30.6148C16.6006 30.6158 14.723 30.2093 12.994 29.4228L6.43404 30.6088C6.25991 30.6407 6.08043 30.6258 5.91394 30.5656C5.74746 30.5054 5.59993 30.4021 5.48644 30.2663C5.37295 30.1304 5.29756 29.9668 5.26797 29.7923C5.23838 29.6178 5.25566 29.4385 5.31804 29.2728L7.19804 24.2768C5.93147 22.198 5.26038 19.8111 5.25804 17.3768C5.26004 10.1628 11.28 4.13682 18.5 4.13282ZM25.15 23.0048C23.676 24.1968 21.394 25.4008 19.212 24.0008C16.352 22.1628 13.82 19.7488 11.984 16.8868C10.906 15.2108 11.92 12.5268 13.436 10.8908C14.04 10.2368 15.036 10.3408 15.694 10.9408L17.078 12.2048C17.498 12.5888 17.514 13.2568 17.252 13.7648C16.838 14.5608 16.594 15.6308 17.106 16.4288C17.75 17.4288 18.542 18.4148 20.434 18.9888C21.006 19.1648 21.74 19.0888 22.364 18.8368C22.886 18.6248 23.548 18.6268 23.934 19.0388L25.222 20.4088C25.932 21.1648 25.956 22.3528 25.15 23.0048Z" fill="#333333"/>
</svg>
